<mxfile host="app.diagrams.net" agent="Mozilla/5.0 (Windows NT 10.0; Win64; x64) AppleWebKit/537.36 (KHTML, like Gecko) Chrome/130.0.0.0 Safari/537.36" version="24.8.3" pages="3">
  <diagram name="Página-1" id="IevR8n8IGhwJeJifm0HI">
    <mxGraphModel dx="1434" dy="772" grid="1" gridSize="10" guides="1" tooltips="1" connect="1" arrows="1" fold="1" page="1" pageScale="1" pageWidth="827" pageHeight="1169" math="0" shadow="0">
      <root>
        <mxCell id="0" />
        <mxCell id="1" parent="0" />
        <mxCell id="CCyiiPosAExVwUWFHf0E-1" value="&lt;div&gt;Usuário&lt;/div&gt;&lt;div&gt;&lt;br&gt;&lt;/div&gt;" style="shape=umlActor;html=1;verticalLabelPosition=bottom;verticalAlign=top;align=center;" vertex="1" parent="1">
          <mxGeometry x="110" y="110" width="30" height="60" as="geometry" />
        </mxCell>
        <mxCell id="CCyiiPosAExVwUWFHf0E-7" style="edgeStyle=orthogonalEdgeStyle;rounded=0;orthogonalLoop=1;jettySize=auto;html=1;endArrow=none;endFill=0;" edge="1" parent="1" source="CCyiiPosAExVwUWFHf0E-2">
          <mxGeometry relative="1" as="geometry">
            <mxPoint x="130" y="90" as="targetPoint" />
          </mxGeometry>
        </mxCell>
        <mxCell id="CCyiiPosAExVwUWFHf0E-2" value="Cadastrar Funcionário&lt;div&gt;&lt;br&gt;&lt;/div&gt;" style="ellipse;whiteSpace=wrap;html=1;" vertex="1" parent="1">
          <mxGeometry x="220" width="120" height="80" as="geometry" />
        </mxCell>
        <mxCell id="CCyiiPosAExVwUWFHf0E-9" style="rounded=0;orthogonalLoop=1;jettySize=auto;html=1;endArrow=none;endFill=0;" edge="1" parent="1" source="CCyiiPosAExVwUWFHf0E-3">
          <mxGeometry relative="1" as="geometry">
            <mxPoint x="150" y="140" as="targetPoint" />
          </mxGeometry>
        </mxCell>
        <mxCell id="CCyiiPosAExVwUWFHf0E-3" value="Consultar Funcionário&lt;div&gt;&lt;br&gt;&lt;/div&gt;" style="ellipse;whiteSpace=wrap;html=1;" vertex="1" parent="1">
          <mxGeometry x="230" y="110" width="120" height="80" as="geometry" />
        </mxCell>
        <mxCell id="CCyiiPosAExVwUWFHf0E-10" style="rounded=0;orthogonalLoop=1;jettySize=auto;html=1;endArrow=none;endFill=0;" edge="1" parent="1" source="CCyiiPosAExVwUWFHf0E-4">
          <mxGeometry relative="1" as="geometry">
            <mxPoint x="150" y="200" as="targetPoint" />
          </mxGeometry>
        </mxCell>
        <mxCell id="CCyiiPosAExVwUWFHf0E-4" value="Atualizar Funcionário&lt;div&gt;&lt;br&gt;&lt;/div&gt;" style="ellipse;whiteSpace=wrap;html=1;" vertex="1" parent="1">
          <mxGeometry x="230" y="220" width="120" height="80" as="geometry" />
        </mxCell>
        <mxCell id="CCyiiPosAExVwUWFHf0E-5" value="Solicitar Confirmação de Exclusão&amp;nbsp;&lt;div&gt;&lt;br&gt;&lt;/div&gt;" style="ellipse;whiteSpace=wrap;html=1;" vertex="1" parent="1">
          <mxGeometry x="274" y="340" width="140" height="100" as="geometry" />
        </mxCell>
        <mxCell id="CCyiiPosAExVwUWFHf0E-11" style="rounded=0;orthogonalLoop=1;jettySize=auto;html=1;endArrow=none;endFill=0;" edge="1" parent="1">
          <mxGeometry relative="1" as="geometry">
            <mxPoint x="120" y="210" as="targetPoint" />
            <mxPoint x="120" y="310" as="sourcePoint" />
          </mxGeometry>
        </mxCell>
        <mxCell id="4ZOl50Vd5NmkhNTzHedt-1" style="rounded=0;orthogonalLoop=1;jettySize=auto;html=1;dashed=1;" edge="1" parent="1" source="CCyiiPosAExVwUWFHf0E-6">
          <mxGeometry relative="1" as="geometry">
            <mxPoint x="270" y="380" as="targetPoint" />
            <Array as="points">
              <mxPoint x="220" y="370" />
            </Array>
          </mxGeometry>
        </mxCell>
        <mxCell id="CCyiiPosAExVwUWFHf0E-6" value="Deletar Funcionário&lt;div&gt;&lt;br&gt;&lt;/div&gt;" style="ellipse;whiteSpace=wrap;html=1;" vertex="1" parent="1">
          <mxGeometry x="65" y="300" width="120" height="80" as="geometry" />
        </mxCell>
        <mxCell id="4ZOl50Vd5NmkhNTzHedt-2" value="&lt;div&gt;&amp;lt;&amp;lt;inclusão&amp;gt;&amp;gt;&lt;/div&gt;&lt;div&gt;&lt;br&gt;&lt;/div&gt;" style="text;html=1;align=center;verticalAlign=middle;resizable=0;points=[];autosize=1;strokeColor=none;fillColor=none;" vertex="1" parent="1">
          <mxGeometry x="190" y="350" width="100" height="40" as="geometry" />
        </mxCell>
      </root>
    </mxGraphModel>
  </diagram>
  <diagram name="Cópia do Página-1" id="t2Hr39COg41Ebl1TkBH4">
    <mxGraphModel dx="1434" dy="772" grid="1" gridSize="10" guides="1" tooltips="1" connect="1" arrows="1" fold="1" page="1" pageScale="1" pageWidth="827" pageHeight="1169" math="0" shadow="0">
      <root>
        <mxCell id="TIda4UGEEf4xdUoyCZQs-0" />
        <mxCell id="TIda4UGEEf4xdUoyCZQs-1" parent="TIda4UGEEf4xdUoyCZQs-0" />
        <mxCell id="TIda4UGEEf4xdUoyCZQs-2" value="Usuario&lt;div&gt;&lt;br&gt;&lt;/div&gt;" style="shape=umlActor;html=1;verticalLabelPosition=bottom;verticalAlign=top;align=center;" vertex="1" parent="TIda4UGEEf4xdUoyCZQs-1">
          <mxGeometry x="110" y="110" width="30" height="60" as="geometry" />
        </mxCell>
        <mxCell id="TIda4UGEEf4xdUoyCZQs-3" style="edgeStyle=orthogonalEdgeStyle;rounded=0;orthogonalLoop=1;jettySize=auto;html=1;endArrow=none;endFill=0;" edge="1" parent="TIda4UGEEf4xdUoyCZQs-1" source="TIda4UGEEf4xdUoyCZQs-4">
          <mxGeometry relative="1" as="geometry">
            <mxPoint x="130" y="90" as="targetPoint" />
          </mxGeometry>
        </mxCell>
        <mxCell id="TIda4UGEEf4xdUoyCZQs-4" value="Cadastrar Funcionário&lt;div&gt;&lt;br&gt;&lt;/div&gt;" style="ellipse;whiteSpace=wrap;html=1;" vertex="1" parent="TIda4UGEEf4xdUoyCZQs-1">
          <mxGeometry x="220" width="120" height="80" as="geometry" />
        </mxCell>
        <mxCell id="TIda4UGEEf4xdUoyCZQs-5" style="rounded=0;orthogonalLoop=1;jettySize=auto;html=1;endArrow=none;endFill=0;" edge="1" parent="TIda4UGEEf4xdUoyCZQs-1" source="TIda4UGEEf4xdUoyCZQs-6">
          <mxGeometry relative="1" as="geometry">
            <mxPoint x="150" y="140" as="targetPoint" />
          </mxGeometry>
        </mxCell>
        <mxCell id="TIda4UGEEf4xdUoyCZQs-6" value="Consultar Funcionário&lt;div&gt;&lt;br&gt;&lt;/div&gt;" style="ellipse;whiteSpace=wrap;html=1;" vertex="1" parent="TIda4UGEEf4xdUoyCZQs-1">
          <mxGeometry x="230" y="110" width="120" height="80" as="geometry" />
        </mxCell>
        <mxCell id="TIda4UGEEf4xdUoyCZQs-7" style="rounded=0;orthogonalLoop=1;jettySize=auto;html=1;endArrow=none;endFill=0;" edge="1" parent="TIda4UGEEf4xdUoyCZQs-1" source="TIda4UGEEf4xdUoyCZQs-8">
          <mxGeometry relative="1" as="geometry">
            <mxPoint x="150" y="200" as="targetPoint" />
          </mxGeometry>
        </mxCell>
        <mxCell id="TIda4UGEEf4xdUoyCZQs-8" value="Atualizar Funcionário&lt;div&gt;&lt;br&gt;&lt;/div&gt;" style="ellipse;whiteSpace=wrap;html=1;" vertex="1" parent="TIda4UGEEf4xdUoyCZQs-1">
          <mxGeometry x="230" y="220" width="120" height="80" as="geometry" />
        </mxCell>
        <mxCell id="TIda4UGEEf4xdUoyCZQs-9" value="Solicitar Confirmação de Exclusão&amp;nbsp;&lt;div&gt;&lt;br&gt;&lt;/div&gt;" style="ellipse;whiteSpace=wrap;html=1;" vertex="1" parent="TIda4UGEEf4xdUoyCZQs-1">
          <mxGeometry x="220" y="330" width="140" height="100" as="geometry" />
        </mxCell>
        <mxCell id="TIda4UGEEf4xdUoyCZQs-10" style="rounded=0;orthogonalLoop=1;jettySize=auto;html=1;endArrow=none;endFill=0;" edge="1" parent="TIda4UGEEf4xdUoyCZQs-1">
          <mxGeometry relative="1" as="geometry">
            <mxPoint x="120" y="210" as="targetPoint" />
            <mxPoint x="120" y="310" as="sourcePoint" />
          </mxGeometry>
        </mxCell>
        <mxCell id="TIda4UGEEf4xdUoyCZQs-11" value="Deletar Funcionário&lt;div&gt;&lt;br&gt;&lt;/div&gt;" style="ellipse;whiteSpace=wrap;html=1;" vertex="1" parent="TIda4UGEEf4xdUoyCZQs-1">
          <mxGeometry x="65" y="310" width="120" height="80" as="geometry" />
        </mxCell>
      </root>
    </mxGraphModel>
  </diagram>
  <diagram name="Cópia do Página-1" id="lPLtVJ7jTbb96DSH3VrZ">
    <mxGraphModel dx="1434" dy="772" grid="1" gridSize="10" guides="1" tooltips="1" connect="1" arrows="1" fold="1" page="1" pageScale="1" pageWidth="827" pageHeight="1169" math="0" shadow="0">
      <root>
        <mxCell id="zwsIljeFHzPesQmUYNcj-0" />
        <mxCell id="zwsIljeFHzPesQmUYNcj-1" parent="zwsIljeFHzPesQmUYNcj-0" />
        <mxCell id="zwsIljeFHzPesQmUYNcj-2" value="Usuario&lt;div&gt;&lt;br&gt;&lt;/div&gt;" style="shape=umlActor;html=1;verticalLabelPosition=bottom;verticalAlign=top;align=center;" vertex="1" parent="zwsIljeFHzPesQmUYNcj-1">
          <mxGeometry x="110" y="110" width="30" height="60" as="geometry" />
        </mxCell>
        <mxCell id="zwsIljeFHzPesQmUYNcj-3" style="edgeStyle=orthogonalEdgeStyle;rounded=0;orthogonalLoop=1;jettySize=auto;html=1;endArrow=none;endFill=0;" edge="1" parent="zwsIljeFHzPesQmUYNcj-1" source="zwsIljeFHzPesQmUYNcj-4">
          <mxGeometry relative="1" as="geometry">
            <mxPoint x="130" y="90" as="targetPoint" />
          </mxGeometry>
        </mxCell>
        <mxCell id="zwsIljeFHzPesQmUYNcj-4" value="Cadastrar Funcionário&lt;div&gt;&lt;br&gt;&lt;/div&gt;" style="ellipse;whiteSpace=wrap;html=1;" vertex="1" parent="zwsIljeFHzPesQmUYNcj-1">
          <mxGeometry x="220" width="120" height="80" as="geometry" />
        </mxCell>
        <mxCell id="zwsIljeFHzPesQmUYNcj-5" style="rounded=0;orthogonalLoop=1;jettySize=auto;html=1;endArrow=none;endFill=0;" edge="1" parent="zwsIljeFHzPesQmUYNcj-1" source="zwsIljeFHzPesQmUYNcj-6">
          <mxGeometry relative="1" as="geometry">
            <mxPoint x="150" y="140" as="targetPoint" />
          </mxGeometry>
        </mxCell>
        <mxCell id="zwsIljeFHzPesQmUYNcj-6" value="Consultar Funcionário&lt;div&gt;&lt;br&gt;&lt;/div&gt;" style="ellipse;whiteSpace=wrap;html=1;" vertex="1" parent="zwsIljeFHzPesQmUYNcj-1">
          <mxGeometry x="230" y="110" width="120" height="80" as="geometry" />
        </mxCell>
        <mxCell id="zwsIljeFHzPesQmUYNcj-7" style="rounded=0;orthogonalLoop=1;jettySize=auto;html=1;endArrow=none;endFill=0;" edge="1" parent="zwsIljeFHzPesQmUYNcj-1" source="zwsIljeFHzPesQmUYNcj-8">
          <mxGeometry relative="1" as="geometry">
            <mxPoint x="150" y="200" as="targetPoint" />
          </mxGeometry>
        </mxCell>
        <mxCell id="zwsIljeFHzPesQmUYNcj-8" value="Atualizar Funcionário&lt;div&gt;&lt;br&gt;&lt;/div&gt;" style="ellipse;whiteSpace=wrap;html=1;" vertex="1" parent="zwsIljeFHzPesQmUYNcj-1">
          <mxGeometry x="230" y="220" width="120" height="80" as="geometry" />
        </mxCell>
        <mxCell id="zwsIljeFHzPesQmUYNcj-9" value="Solicitar Confirmação de Exclusão&amp;nbsp;&lt;div&gt;&lt;br&gt;&lt;/div&gt;" style="ellipse;whiteSpace=wrap;html=1;" vertex="1" parent="zwsIljeFHzPesQmUYNcj-1">
          <mxGeometry x="220" y="330" width="140" height="100" as="geometry" />
        </mxCell>
        <mxCell id="zwsIljeFHzPesQmUYNcj-10" style="rounded=0;orthogonalLoop=1;jettySize=auto;html=1;endArrow=none;endFill=0;" edge="1" parent="zwsIljeFHzPesQmUYNcj-1">
          <mxGeometry relative="1" as="geometry">
            <mxPoint x="120" y="210" as="targetPoint" />
            <mxPoint x="120" y="310" as="sourcePoint" />
          </mxGeometry>
        </mxCell>
        <mxCell id="zwsIljeFHzPesQmUYNcj-11" value="Deletar Funcionário&lt;div&gt;&lt;br&gt;&lt;/div&gt;" style="ellipse;whiteSpace=wrap;html=1;" vertex="1" parent="zwsIljeFHzPesQmUYNcj-1">
          <mxGeometry x="65" y="310" width="120" height="80" as="geometry" />
        </mxCell>
      </root>
    </mxGraphModel>
  </diagram>
</mxfile>
